PathFileType        4      (X/Y/Z)      C:\Users\pc\Desktop\IMUTRC\Sujet_08\Sujet_08_velo_60.trc         
DataRate	CameraRate	NumFrames	NumMarkers	Units	OrigDataRate	OrigDataStartFrame	OrigNumFrames
60.0	60.0	4	64	mm	60.0	468	934
Frame#	Time	pHipOrigin			pRightASI			pLeftASI			pRightCSI			pLeftCSI			pRightIschialTub			pLeftIschialTub			pSacrum			pL5SpinalProcess			pL3SpinalProcess			pT12SpinalProcess			pIJ			pT4SpinalProcess			pT8SpinalProcess			pPX			pC7SpinalProcess			pTopOfHead			pRightAuricularis			pLeftAuricularis			pBackOfHead			pRightAcromion			pLeftAcromion			pRightArmLatEpicondyle			pRightArmMedEpicondyle			pLeftArmLatEpicondyle			pLeftArmMedEpicondyle			pRightUlnarStyloid			pRightRadialStyloid			pRightOlecranon			pLeftUlnarStyloid			pLeftRadialStyloid			pLeftOlecranon			pRightTopOfHand			pRightPinky			pRightBallHand			pLeftTopOfHand			pLeftPinky			pLeftBallHand			pRightGreaterTrochanter			pRightKneeLatEpicondyle			pRightKneeMedEpicondyle			pRightPatella			pLeftGreaterTrochanter			pLeftKneeLatEpicondyle			pLeftKneeMedEpicondyle			pLeftPatella			pRightTibialTub			pRightLatMalleolus			pRightMedMalleolus			pLeftTibialTub			pLeftLatMalleolus			pLeftMedMalleolus			pRightHeelFoot			pRightFirstMetatarsal			pRightFifthMetatarsal			pRightPivotFoot			pRightHeelCenter			pRightToe			pLeftHeelFoot			pLeftFirstMetatarsal			pLeftFifthMetatarsal			pLeftPivotFoot			pLeftHeelCenter			pLeftToe			
		X1	Y1	Z1	X2	Y2	Z2	X3	Y3	Z3	X4	Y4	Z4	X5	Y5	Z5	X6	Y6	Z6	X7	Y7	Z7	X8	Y8	Z8	X9	Y9	Z9	X10	Y10	Z10	X11	Y11	Z11	X12	Y12	Z12	X13	Y13	Z13	X14	Y14	Z14	X15	Y15	Z15	X16	Y16	Z16	X17	Y17	Z17	X18	Y18	Z18	X19	Y19	Z19	X20	Y20	Z20	X21	Y21	Z21	X22	Y22	Z22	X23	Y23	Z23	X24	Y24	Z24	X25	Y25	Z25	X26	Y26	Z26	X27	Y27	Z27	X28	Y28	Z28	X29	Y29	Z29	X30	Y30	Z30	X31	Y31	Z31	X32	Y32	Z32	X33	Y33	Z33	X34	Y34	Z34	X35	Y35	Z35	X36	Y36	Z36	X37	Y37	Z37	X38	Y38	Z38	X39	Y39	Z39	X40	Y40	Z40	X41	Y41	Z41	X42	Y42	Z42	X43	Y43	Z43	X44	Y44	Z44	X45	Y45	Z45	X46	Y46	Z46	X47	Y47	Z47	X48	Y48	Z48	X49	Y49	Z49	X50	Y50	Z50	X51	Y51	Z51	X52	Y52	Z52	X53	Y53	Z53	X54	Y54	Z54	X55	Y55	Z55	X56	Y56	Z56	X57	Y57	Z57	X58	Y58	Z58	X59	Y59	Z59	X60	Y60	Z60	X61	Y61	Z61	X62	Y62	Z62	X63	Y63	Z63	X64	Y64	Z64	
468	7.783	0.0	1249.97582	7.653894434872941E-14	99.38291327931788	1330.92694	121.21720347656971	80.52321678869461	1316.70798	-142.1619191324831	74.70630730369714	1404.60701	95.53673174864463	59.12910313107643	1392.97331	-121.32352596611551	-63.929821792891275	1215.55947	61.083072064672464	-71.73245204723446	1209.74263	-47.267499098380505	-56.6278780491634	1288.59322	1.9922082920415025	6.055168750420297	1370.99856	-5.495175037433527	70.32906785587286	1465.6839	-15.491272771919958	128.19149588767752	1552.77503	-24.484961935924133	371.0600892157497	1604.48034	-62.876172038004576	256.5801787099285	1690.44041	-44.50521374096264	193.60732972279948	1633.07984	-34.443778399310325	288.3473683193341	1522.55974	-49.73253389454703	293.00925553671567	1721.94833	-45.465012434716506	415.10325586599083	1914.87376	-99.57360284311794	440.4121851268675	1820.18842	-36.53735109248524	353.9018407422774	1824.2279	-139.56982960554262	357.9384921995715	1833.92264	-54.52520347088479	330.0581475693461	1668.1425	102.66158602052208	275.3243143164447	1671.05092	-207.56883150677032	466.8492516687049	1418.17965	61.973224328062656	432.27577133841606	1405.73806	12.397993319140149	402.17680379609953	1407.19227	-168.6300706030672	373.2992853774368	1399.11332	-114.65614382550544	557.9098304390205	1184.53629	39.63688876210369	597.021700509662	1205.70315	13.226805212766582	429.77289621806904	1404.44543	52.64644808118595	501.5426224519913	1180.01208	-170.14150942294745	545.7330714300728	1203.60262	-157.42739248283422	365.104331353829	1394.26594	-150.0639772078159	723.8900132031204	1085.64989	98.60064700649086	633.9190271446383	1103.26201	81.25969115016495	593.7585323120534	1153.18995	38.2466090411785	649.8759158455842	1083.71094	-268.84491992875763	567.2232022142246	1099.22253	-228.12665103207615	538.0082064982513	1149.79679	-177.82180820174162	40.12030904591812	1250.62214	157.69211612952515	419.58903745225143	1141.39467	118.77644277761381	417.04178195107653	1138.16309	42.033955683389834	427.0055483912794	1181.78945	75.78481698944225	-13.696836220916484	1209.74263	-156.8065951727435	173.26076851074293	859.60074	-153.53790912434374	198.9359956085456	867.35654	-81.41312519624896	221.22486326957565	885.29182	-129.6577989440741	451.09944277155347	1098.41464	84.29907860688725	254.13710364980102	779.13436	156.37998833304346	254.54059530935808	771.0554	96.4008865967456	230.28611142611777	823.56861	-124.28640618889766	80.36253707359396	473.42673	-153.34712934840917	87.849538301294	470.5183	-93.45336435827001	183.1657054104145	723.71273	129.9197234833409	317.1118017686046	648.09372	92.33928776012372	319.2281842927557	650.51741	166.87286626217585	336.66991627078716	638.88371	128.43818201960508	217.0395865316559	708.03956	129.49380048313378	406.0089094479502	599.78157	127.86692311977907	10.28947945619721	425.11458	-114.18437791471779	143.79402245698853	341.90135	-96.2223639599754	134.02122503788326	342.70924	-170.1371237086564	156.79911569772273	330.91397	-134.6190044643777	42.740074543631046	407.34088	-118.63491487023396	222.89833357823608	287.28762	-143.8010313545817	
469	7.8	0.0	1249.97582	7.653894434872941E-14	99.57009658859701	1330.76536	121.0861363123854	80.3640915519629	1316.70798	-142.18997720503052	74.86543254042886	1404.60701	95.56478982119205	58.9419198217973	1392.97331	-121.19245880193122	-63.770706404237096	1215.55947	61.11112840073811	-71.73245204723446	1209.74263	-47.267499098380505	-56.6278780491634	1288.59322	1.9922082920415025	6.055168750420297	1370.99856	-5.495175037433527	70.32906785587286	1465.6839	-15.491272771919958	128.35062112440923	1552.77503	-24.456903863376713	371.14426169691023	1604.31876	-63.353537900122184	256.795420091755	1690.44041	-44.795406141878644	193.79451303207864	1633.07984	-34.574845563494605	288.40348446442897	1522.39816	-50.050784368010454	293.0653716818105	1721.78676	-45.78326290817993	414.5978220832483	1915.03534	-99.49865182402851	440.09393465340406	1820.35	-36.593467237580086	353.9579551508904	1824.2279	-139.88807023092852	357.6763561347212	1833.76106	-54.89956024136551	330.3014452872383	1668.30408	102.2122782309519	275.06217825159433	1670.72776	-207.94318827725104	467.2236182872631	1418.34123	61.71108999969407	432.6501379569743	1405.73806	12.135858990771553	402.3639871053786	1407.19227	-168.76113776725145	373.6455840753701	1399.2749	-114.75915465362411	558.6024376829648	1184.85945	39.430868842348175	597.8734329903378	1206.02631	13.048843365558472	430.1753209091747	1404.44543	52.22518851608565	502.23522969593546	1180.17365	-170.34752934270298	546.4256885220944	1203.92578	-157.63341066610795	365.45063005176235	1394.26594	-150.1669880359345	724.7136876112488	1086.13463	98.58181039601449	634.6116442366601	1103.74675	81.05367296689123	594.4792074766225	1153.5131	37.88146562117305	650.6995902537127	1084.19568	-268.863756539234	568.0749346949005	1099.54569	-228.30461287928426	538.8318907544573	1150.11994	-177.84064307573624	40.46661759192898	1250.46056	157.58910703788828	419.523307895233	1140.4252	117.28820935001109	416.65780365707644	1137.19362	40.489596262614725	426.939818834261	1180.81997	74.29658356183953	-12.976161056347355	1210.06579	-157.17173859274894	179.59728856530137	863.15548	-155.04575147756853	204.76709346492083	870.7497	-82.84602464198008	226.99984498085598	889.3313	-130.77244791634183	452.60611912329836	1098.57622	82.2677497601485	267.8867524659808	772.18646	154.70262690442192	268.13111715232435	764.26908	94.69547694365416	234.4979086907059	825.66914	-125.84075938688953	70.45032875152167	481.82884	-152.96198505292915	78.0964569524352	478.75884	-93.04017183832008	198.88096336439207	714.01799	128.26080671534325	335.6255647305796	644.05424	89.69717939741338	337.90107075498054	645.99319	164.25882582009044	355.68911301550463	635.49055	125.72112263780534	233.28832475636418	699.79903	127.60081557091071	426.4413868646992	598.97368	124.57871024629584	-1.1109605569960301	436.26354	-113.73351391029688	129.01469089748414	348.04135	-95.2187812764174	119.26994170284877	349.01083	-169.29266799831186	141.54239857994568	336.40766	-133.69959773494378	30.515948537750035	417.1972	-118.1652061437409	205.96619972357712	290.35762	-142.6848279039451	
470	7.817	0.0	1249.97582	7.653894434872941E-14	99.72922182532872	1330.76536	121.11419438493283	80.20496631523119	1317.03114	-142.21803527757794	74.83737446788143	1404.44543	95.72391505792376	58.75473651251815	1393.29647	-121.06139163774692	-63.770706404237096	1215.3979	61.11112840073811	-71.73245204723446	1209.74263	-47.267499098380505	-56.4968108849791	1288.59322	2.1793916013206376	6.027110677872875	1371.16014	-5.336049800701814	70.30101151980722	1465.6839	-15.332157383265772	128.19149588767752	1552.77503	-24.484961935924133	371.0131945327259	1604.15718	-63.540721209401326	256.66435292757075	1690.44041	-44.98258945115777	193.66344586789432	1633.07984	-34.76202887277375	288.2443690757748	1522.39816	-50.0788407040761	292.96237243825124	1721.62518	-46.129569717708996	413.90521483930416	1915.19692	-99.29263190427301	439.5885026071432	1820.51158	-36.51852606656817	353.66776274997443	1824.2279	-140.10331161275505	357.0679231084192	1833.76106	-55.170916031805156	330.35756143233317	1668.62724	101.89402775748847	274.77199569875586	1670.56618	-208.15842792259582	467.4388579326079	1418.66439	61.420907446855594	432.83732126625347	1406.06122	12.004791826587265	402.65417950629467	1407.35385	-168.54589638542492	373.9357764762861	1399.43648	-114.54391327179754	559.2950547749865	1185.34418	39.224850659074434	598.4069231091461	1206.67262	12.814776957814846	430.3625042184538	1404.76859	52.09412135190136	503.030855879594	1180.49681	-170.20723897996587	547.0621796209438	1204.41052	-157.52118011240006	365.74082245267834	1394.26594	-149.95174665410798	725.2191213939914	1086.78094	98.50685937692505	635.2762032561343	1104.23148	81.0067800203492	595.1437566480192	1153.99784	37.834570938149255	651.5513308459842	1084.68041	-269.04170680188275	568.8986189511064	1100.03043	-228.32344775327886	539.6555651625856	1150.60468	-177.85947968621258	40.494675664476404	1249.49108	157.42998180115657	418.7369147582048	1136.5473	116.16511123081804	415.7122835468347	1133.80046	39.33844991895182	426.28449286141705	1177.10365	73.36066875192562	-12.12442857567148	1210.55052	-157.34970043995705	187.26292839529015	867.35654	-156.6473895719549	211.89923970313782	874.95076	-84.21357663246778	234.10393488300735	894.50183	-131.98088451817532	453.495142723152	1096.15253	80.94785491975279	280.6816481252884	763.13803	152.85692688859336	281.08513978484547	755.54381	92.8778251522955	239.851630836886	828.73914	-127.35783305026291	61.86722862032039	491.84674	-152.67062838701492	69.67247220988811	488.45358	-92.72075883634021	213.8567095433242	702.54587	126.14335895922257	352.9973929628851	637.91424	87.01778976360279	355.27290883536364	639.53003	161.57943792276166	373.40724979382105	629.83528	122.93872391235787	248.76949486996128	689.45797	125.40841505921881	445.5447479789815	596.06525	121.38427341781916	-11.3694872731567	449.18986	-113.24536225966173	115.27426527985723	355.95873	-94.52422934073357	105.50146786075196	357.08978	-168.43898908941455	127.26849095510633	343.67872	-132.77096780695703	19.56481631412698	428.99248	-117.4710444214278	189.7266846974217	295.20499	-141.77465248465973	
471	7.833	0.0	1249.97582	7.653894434872941E-14	99.72922182532872	1330.60378	121.11419438493283	80.01778300595204	1317.3543	-142.08696811339365	74.80931639533401	1404.44543	95.88304029465549	58.56755320323902	1393.45805	-120.93032447356265	-63.61158116750538	1215.23632	61.139186473285534	-71.73245204723446	1209.74263	-47.267499098380505	-56.68399419425824	1288.43164	2.3104587655049285	5.839929105075517	1371.16014	-5.204992484595055	70.11382821052808	1465.6839	-15.201090219081484	128.00431257839838	1552.77503	-24.353894771739853	370.72300213180995	1604.31876	-63.75596259122789	256.5332857633864	1690.44041	-45.16977276043692	193.50432063116264	1633.24142	-34.790086945321164	287.9261186023113	1522.39816	-50.13495684917095	292.6721800373352	1721.78676	-46.344811099535555	413.2125977472825	1915.52008	-99.08661372099927	438.8958855151215	1820.83474	-36.312507883294444	353.37757034905843	1824.38948	-140.31855299458164	356.4314221614924	1833.76106	-55.283148321994844	330.19843619560146	1668.95039	101.86596968494105	274.135494751829	1670.24303	-208.27066021278551	467.59798316933967	1419.14912	61.44896551940302	432.9964465029852	1406.38438	12.032849899134689	402.78523682240143	1407.51543	-168.35871481262754	374.3570360413864	1399.59805	-114.14148858069186	559.800488557729	1185.9905	39.14989963998499	598.9123568918886	1207.31894	12.73982593872542	430.5496776796554	1405.09174	51.963052451235285	503.66735682652086	1180.98155	-170.09500668977617	547.6986805678706	1204.89525	-157.40894782221037	366.0029567810469	1394.42752	-149.57738003554968	725.8836804134656	1087.58884	98.45996643038302	635.7816271907993	1105.03938	80.93182726477798	595.6491904307618	1154.64416	37.759619919059816	652.1878317929111	1085.48831	-268.92947451169306	569.5351198980333	1100.51516	-228.21121546308916	540.2920661095125	1151.08942	-177.74724739602289	40.46661759192898	1248.19845	157.58910703788828	416.8554781015674	1129.92256	115.66930070807656	414.17715717269	1128.14519	38.73962045649593	425.30168336847936	1170.80207	73.3514455533728	-10.926379437389006	1211.19684	-157.6306597942427	196.25767467966816	872.68865	-158.3428054478296	220.20138048005347	880.28287	-85.70298243666447	242.34994793026885	900.48025	-133.15203173731285	453.5793152043125	1091.14358	80.47048905763518	292.4937360281402	751.98907	151.00199382613448	293.2435362337081	744.55643	90.91988299819975	246.53446928553282	832.61704	-128.96868275864279	54.238870061431854	503.48044	-152.21092502229794	62.39042219701044	500.08728	-92.36406456326011	227.8777060383478	689.29639	123.85755291973983	369.2272963135988	629.83528	84.30112059517374	371.50281218607734	630.96634	158.8627687543326	389.8243364538138	622.24107	120.09098757974452	263.2959251477275	677.50111	123.04765800064663	463.13182570470934	590.89472	118.41470296765186	-20.486079259647962	463.89356	-112.71992933792637	102.32946584588888	365.81505	-93.68938704231262	92.74385173606275	367.10769	-167.7352139551779	113.84632392253859	353.05031	-132.020288141619	9.624540071429738	442.40354	-116.92677662569783	174.46997742772214	301.99131	-140.855244018744	
